<svg id="_x33_0" enable-background="new 0 0 64 64" height="512" viewBox="0 0 64 64" width="512" xmlns="http://www.w3.org/2000/svg"><g><g><g><path d="m40 5c.94 0 1.84.24 2.64.66.8.44 1.5 1.06 2.02 1.84l.34.5c1.1 0 2.1.45 2.83 1.17.72.73 1.17 1.73 1.17 2.83 0 1.92-.76 3.76-2.12 5.12l-2.88 2.88h-2v-5.19c0-1.03-.78-1.89-1.8-1.99l-5.21-.52c-.35-.04-.68-.12-.99-.26l-8.87-.04c-1.73 0-3.13 1.4-3.13 3.13v4.87h-2l-1.23-2.46c-.51-1.01-.77-2.13-.77-3.27 0-1.57.5-3.06 1.38-4.28.88-1.21 2.13-2.16 3.62-2.66l1-.33.09-.14c1.8-3.02 5.06-4.86 8.57-4.86 2.17 0 4.28.7 6.01 2z" fill="#b27946"/></g><g><path d="m44 51v.17c0 1.46-.46 2.86-1.31 4.02-.3-.35-.57-.73-.8-1.13l-2.89-5.06.79-1.58c.14-.28.21-.58.21-.89v-.53c0-.55-.22-1.05-.59-1.41-.36-.37-.86-.59-1.41-.59 0-.55-.22-1.05-.59-1.41-.36-.37-.86-.59-1.41-.59-1.1 0-2 .9-2 2v9c0 2.48 1.01 4.74 2.64 6.36 1.62 1.63 3.88 2.64 6.36 2.64h-22c2.48 0 4.74-1.01 6.36-2.64 1.63-1.62 2.64-3.88 2.64-6.36v-9c0-1.1-.9-2-2-2-.55 0-1.05.22-1.41.59-.37.36-.59.86-.59 1.41-.55 0-1.05.22-1.41.59-.37.36-.59.86-.59 1.41v.53c0 .31.07.61.21.89l.79 1.58-2.89 5.06c-.23.4-.5.78-.8 1.13-.85-1.16-1.31-2.56-1.31-4.02v-.17h-7.88c.77-6.89 5.55-12.77 12.29-14.88l3.59-1.12.41 2.06c.34 1.71 1.85 2.94 3.59 2.94.87 0 1.68-.31 2.32-.83s1.1-1.25 1.27-2.11l.41-2.06 3.59 1.12c6.74 2.11 11.52 7.99 12.29 14.88z" fill="#5cd6b3"/></g><g><path d="m21.31 55.19c.3-.35.57-.73.8-1.13l2.89-5.06-.79-1.58c-.14-.28-.21-.58-.21-.89v-.53c0-.55.22-1.05.59-1.41.36-.37.86-.59 1.41-.59 0-.55.22-1.05.59-1.41.36-.37.86-.59 1.41-.59 1.1 0 2 .9 2 2v9c0 2.48-1.01 4.74-2.64 6.36-1.62 1.63-3.88 2.64-6.36 2.64s-4.74-1.01-6.36-2.64c-1.63-1.62-2.64-3.88-2.64-6.36 0-.67.04-1.34.11-2h.01 7.88v.17c0 1.46.46 2.86 1.31 4.02z" fill="#f0d0b4"/></g><g><path d="m42.69 55.19c.85-1.16 1.31-2.56 1.31-4.02v-.17h7.88.01c.07.66.11 1.33.11 2 0 2.48-1.01 4.74-2.64 6.36-1.62 1.63-3.88 2.64-6.36 2.64s-4.74-1.01-6.36-2.64c-1.63-1.62-2.64-3.88-2.64-6.36v-9c0-1.1.9-2 2-2 .55 0 1.05.22 1.41.59.37.36.59.86.59 1.41.55 0 1.05.22 1.41.59.37.36.59.86.59 1.41v.53c0 .31-.07.61-.21.89l-.79 1.58 2.89 5.06c.23.4.5.78.8 1.13z" fill="#f0d0b4"/></g><g><path d="m42 20h2c1.1 0 2 .9 2 2 0 .55-.22 1.05-.59 1.41-.36.37-.86.59-1.41.59h-2.2c.13-.64.2-1.31.2-2z" fill="#f0d0b4"/></g><g><path d="m35.13 31.5.87 3.5-.41 2.06c-.17.86-.63 1.59-1.27 2.11s-1.45.83-2.32.83c-1.74 0-3.25-1.23-3.59-2.94l-.41-2.06.87-3.5c.98.32 2.04.5 3.13.5s2.15-.18 3.13-.5z" fill="#f0d0b4"/></g><g><path d="m42 14.81v5.19 2c0 .69-.07 1.36-.2 2-.72 3.53-3.3 6.39-6.67 7.5-.98.32-2.04.5-3.13.5s-2.15-.18-3.13-.5c-1.5-.5-2.85-1.34-3.94-2.43-1.36-1.36-2.33-3.11-2.73-5.07-.13-.64-.2-1.31-.2-2v-2-4.87c0-1.73 1.4-3.13 3.13-3.13l8.87.04c.31.14.64.22.99.26l5.21.52c1.02.1 1.8.96 1.8 1.99z" fill="#f0d0b4"/></g><g><path d="m22 20v2c0 .69.07 1.36.2 2h-2.2c-.55 0-1.05-.22-1.41-.59-.37-.36-.59-.86-.59-1.41 0-1.1.9-2 2-2z" fill="#f0d0b4"/></g></g><g><path d="m29 20c0-.365-.206-.671-.498-.845l.74-.185-.485-1.939-4 1 .485 1.939 1.917-.479c-.092.151-.159.319-.159.509 0 .552.448 1 1 1s1-.448 1-1z"/><path d="m35 20c0 .552.448 1 1 1s1-.448 1-1c0-.19-.067-.358-.16-.51l1.917.479.485-1.939-4-1-.485 1.939.74.185c-.291.175-.497.481-.497.846z"/><path d="m35 25c-2.161 0-4.253.634-6.051 1.832l-.504.336 1.109 1.664.504-.336c1.469-.978 3.177-1.496 4.942-1.496z"/><path d="m39.89 35.168-3.056-.955-.524-2.094c3.027-1.295 5.352-3.911 6.263-7.118h1.427c1.654 0 3-1.346 3-3 0-.977-.476-1.837-1.201-2.385l1.787-1.787c1.557-1.558 2.414-3.628 2.414-5.829 0-2.56-1.942-4.653-4.426-4.942l-.078-.117c-1.16-1.74-3.06-2.805-5.133-2.919l-1.095-.821c-1.893-1.42-4.238-2.201-6.603-2.201-3.775 0-7.33 1.975-9.33 5.168l-.649.216c-3.401 1.134-5.686 4.304-5.686 7.889 0 1.284.304 2.57.878 3.719l.693 1.386c-.931.51-1.571 1.488-1.571 2.622 0 1.654 1.346 3 3 3h1.426c.911 3.207 3.236 5.824 6.263 7.118l-.524 2.094-3.056.955c-7.84 2.452-13.109 9.618-13.109 17.833 0 5.514 4.486 10 10 10h22c5.514 0 10-4.486 10-10 0-8.215-5.269-15.381-13.11-17.832zm4.11-12.168h-1.051c.03-.33.051-.662.051-1v-1h1c.551 0 1 .448 1 1s-.449 1-1 1zm-24 0c-.551 0-1-.448-1-1s.449-1 1-1h1v1c0 .338.021.67.051 1zm3-1v-6.867c0-1.176.957-2.133 2.132-2.133.387 0 .766.105 1.097.304l4.256 2.554 1.029-1.715-4.256-2.554c-.642-.386-1.377-.589-2.126-.589-2.278 0-4.132 1.854-4.132 4.133v3.867h-.382l-.951-1.902c-.437-.872-.667-1.85-.667-2.825 0-2.724 1.735-5.131 4.319-5.992l1.349-.45.275-.459c1.618-2.697 4.577-4.372 7.722-4.372 1.915 0 3.813.628 5.352 1.766-.619.55-1.017 1.343-1.017 2.234 0 1.654 1.346 3 3 3h1v-2h-1c-.551 0-1-.448-1-1s.449-1 1-1c1.298 0 2.513.547 3.377 1.484-.826.535-1.377 1.46-1.377 2.516 0 1.654 1.346 3 3 3h1v-2h-1c-.551 0-1-.448-1-1s.449-1 1-1c1.654 0 3 1.346 3 3 0 1.667-.649 3.234-1.828 4.414l-2.586 2.586h-.586v-4.19c0-1.548-1.162-2.831-2.701-2.984l-5.214-.521c-1.189-.12-2.085-1.111-2.085-2.305h-2c0 2.226 1.67 4.071 3.886 4.294l5.214.521c.513.051.9.479.9.994v7.191c0 4.963-4.038 9-9 9s-9-4.037-9-9zm9 11c.826 0 1.627-.099 2.401-.272l.574 2.297-.367 1.838c-.248 1.238-1.345 2.137-2.608 2.137s-2.36-.899-2.608-2.138l-.367-1.838.574-2.297c.774.174 1.575.273 2.401.273zm-19 20c0-.336.021-.668.04-1h6.025c.114 1.083.448 2.116.991 3.058-.445.416-.949.771-1.503 1.047l.895 1.789c1.486-.743 2.707-1.898 3.53-3.34l3.156-5.523-1.028-2.057c-.069-.137-.106-.291-.106-.446v-.528c0-.552.449-1 1-1h1v-1c0-.552.449-1 1-1s1 .448 1 1v9c0 4.411-3.589 8-8 8s-8-3.589-8-8zm13.974 8c2.438-1.825 4.026-4.727 4.026-8v-9c0-1.654-1.346-3-3-3-1.352 0-2.497.898-2.871 2.129-1.231.374-2.129 1.519-2.129 2.871v.528c0 .463.109.927.316 1.341l.55 1.1-2.459 4.303c-.258-.665-.407-1.371-.407-2.1v-3.758c0-1.179-.459-2.287-1.292-3.121l-1.415 1.414c.456.456.707 1.063.707 1.707v2.586h-5.723c1.088-6.034 5.404-11.039 11.43-12.924l2.531-.79.194.969c.433 2.17 2.355 3.745 4.568 3.745s4.135-1.575 4.569-3.745l.194-.969 2.531.79c6.026 1.884 10.342 6.89 11.43 12.924h-5.724v-2.586c0-.645.251-1.251.708-1.707l-1.415-1.414c-.834.834-1.293 1.942-1.293 3.121v3.758c0 .73-.149 1.435-.407 2.1l-2.459-4.303.55-1.1c.207-.414.316-.878.316-1.341v-.528c0-1.352-.898-2.497-2.129-2.871-.374-1.231-1.519-2.129-2.871-2.129-1.654 0-3 1.346-3 3v9c0 3.273 1.588 6.175 4.026 8zm16.026 0c-4.411 0-8-3.589-8-8v-9c0-.552.449-1 1-1s1 .448 1 1v1h1c.551 0 1 .448 1 1v.528c0 .154-.037.309-.105.446l-1.028 2.057 3.156 5.523c.824 1.441 2.044 2.597 3.53 3.34l.895-1.789c-.554-.277-1.058-.631-1.503-1.047.543-.942.877-1.975.991-3.058h6.025c.02.332.04.664.04 1-.001 4.411-3.59 8-8.001 8z"/></g></g></svg>